<svg version="1.0" width="682.747" height="693.279" viewBox="0 0 512.061 519.959" xmlns="http://www.w3.org/2000/svg"><path style="fill:#06c2b5;stroke:none;stroke-width:42.3212;stroke-linecap:round;paint-order:stroke markers fill" d="M350.552 4.048c-9.61-.431-19.416 2.062-28.491 7.312-7 4.1-21.2 18.6-27.4 28.1-9.8 14.9-17.8 34-21.6 51.5-2.2 10.1-3.2 43.5-1.6 55.5 4.9 37.5 20 59.1 44.8 63.7 23.6 4.4 52.8-19.6 71.4-58.7 6.6-13.8 8.5-20.1 10.9-35.6 4.1-25.9 3.7-49.9-1-68.4-5.6-22-19.2-37.2-37.5-42a46.762 46.762 0 0 0-9.51-1.412zm-184.765.15c-5.65-.288-11.226.212-15.326 1.562-22.3 7.4-35 25.6-39 56.1-1.6 12-.6 41.6 2 56.1 2.7 15.3 4.3 20.5 10.6 33.5 19.1 39.7 48.3 63.4 72.2 58.7 22.3-4.5 37.1-23.8 43-56.2 2.4-12.9 2.4-46.6 0-59.6-7.1-38.9-32.1-76.6-57.7-87-4.4-1.8-10.124-2.875-15.774-3.163zm291.287 128.749c-5.588.212-11.263 1.162-16.113 2.812-17.9 6.3-34.7 20.3-47 39.3-7.7 11.8-18.2 34.6-20.8 44.9-3.5 13.7-4.9 30.3-3.7 42 2.7 25.1 11 39.9 26.8 47.7 6.8 3.4 8.5 3.8 17.2 4.1 11.6.5 19-1.2 30.1-6.8 26.2-13.2 48.4-39.7 57.8-69 5.2-16.2 6.6-25.8 6.7-43.5 0-17.5-1.7-26-7.1-36.7-5.4-10.6-16.6-19.8-28.3-23.2-4.5-1.3-10-1.825-15.587-1.612zm-404.512.112c-23.4.1-39.901 13.8-46.701 38.9-2.7 9.8-2.4 37.101.5 50.201 4.1 18.9 10.8 34.7 20.1 47.8 7 10 22.5 25.1 32.1 31.3 15.1 9.8 26.3 13.2 40.8 12.5 7.9-.4 9.9-.9 16.6-4.1 19.6-9.7 29.2-34.2 26.5-67.6-1.4-18.3-4.6-29.1-14.4-48.6-8.8-17.7-14.6-26.4-24.4-36.3-11.1-11.3-24.4-19.5-36.6-22.7-3.2-.8-9.8-1.5-14.5-1.4zm206 100.2c-21.5-.3-26.801 1.1-33.301 9-2 2.5-28.5 27.7-58.9 56.1-30.4 28.4-57.4 54.3-59.9 57.4-12.7 15.7-22.7 33.801-27.5 49.701-3.5 11.8-4.4 30.3-2 41.5 5 23.7 25.3 48.5 49.1 60 12.3 6 23.4 8.4 39 8.3 18.8 0 34.9-3.9 52-12.5 9.3-4.6 16.2-9.5 29.4-20.6l9.4-7.9 11.6 9.7c13.7 11.4 18.5 14.8 27.7 19.4 17.4 8.7 33.5 12.6 52.2 12.6 26.2 0 44.8-7.6 62.8-25.4 15.7-15.6 24.1-31.5 26.5-50.6 3.4-26.8-10.6-62.1-35.3-88.5-4-4.3-30.7-29.6-59.3-56.3-28.6-26.6-53.4-50.3-55.2-52.7-1.8-2.5-5.1-5.2-8-6.6-4.3-2.1-6.3-2.4-20.3-2.6z"/></svg>